<svg xmlns="http://www.w3.org/2000/svg" width="263.755" height="180.762" viewBox="0 0 263.755 180.762">
  <path id="line" d="M205.112,104.555c0-.348.251-.668.515-.668.292,0,.39.209.223.487s.056.5.446.5c.989,0,1.449-.836.641-1.184-.32-.139.2-.251,1.142-.251,1.978,0,2.967-.181,3.844-.724a1.171,1.171,0,0,1,1.17-.014c.376.223.446.139.195-.251-.515-.836,1.267-2.089,2.047-1.435.418.348,1.281.167,2.967-.655,2.465-1.184,3.649-1.407,4.123-.78.348.474,1.95-.1,1.95-.682a.432.432,0,0,0-.473-.446c-.265,0-.432-.418-.39-.961.056-.7.251-.822.7-.446a1.247,1.247,0,0,1,.5,1c-.237,1.2,1.017.85,1.6-.432l.627-1.393.947,1.17c.515.641.933.905.933.613s.4-.543.891-.543c1.379,0,1.657-.571.752-1.588-1.031-1.128-.543-1.212.585-.1.891.905,3.2,1.031,4.54.265.487-.278.641-.515.32-.529a1.123,1.123,0,0,1-.836-.738c-.2-.5-.028-.627.515-.432.6.223.71.111.487-.46a.751.751,0,0,1,.348-1.017c.418-.153.613.153.543.836-.153,1.685.237,2.312,1.142,1.838a12.033,12.033,0,0,1,2.911-.794,5.553,5.553,0,0,0,2.618-1.017,1.25,1.25,0,0,1,1.212-.418.949.949,0,0,0,1.031-.32c.265-.39.474-.4.7-.056s.724.32,1.6-.139c.947-.487,1.435-.529,1.825-.125.418.4.557.39.557-.056,0-.32.362-.585.808-.585a27.445,27.445,0,0,0,4.081-.947,53.032,53.032,0,0,1,5.6-1.253c1.337-.181,2.3-.557,2.228-.863s.766-.585,2.089-.669c2.618-.139,5.474-.613,5.836-.961.139-.139-.2-.251-.738-.251a2.967,2.967,0,0,1-1.838-.933c-.7-.794-.724-.989-.1-1.212.515-.181.655-.028.446.515-.223.6-.125.7.348.4.39-.251.529-.209.334.1-.822,1.337,5.543.877,6.922-.5.613-.6.571-.836-.293-1.88-.7-.836-.989-.961-1.017-.432s-.125.571-.418.111c-.223-.334-.529-.488-.683-.334a6.194,6.194,0,0,1-1.964.46c-.877.111-2.215.32-2.883.446s-2.075.39-3.064.571-2.465.5-3.2.71l-1.393.4,1.24.515c.794.334.947.529.418.543a2.119,2.119,0,0,1-1.435-.71c-.4-.5-.794-.6-1.156-.306a9.5,9.5,0,0,1-3.008.822,11.507,11.507,0,0,0-3.565,1.059,3.9,3.9,0,0,1-1.964.613c-1.685-.153-2.187.028-1.8.668.265.446.167.432-.432-.042s-.877-.515-1.142-.1a.794.794,0,0,1-.933.32c-.71-.265-1.992.613-2.382,1.644-.223.571-.292.529-.334-.167-.028-.641-.279-.822-.836-.613a5.865,5.865,0,0,1-1.755.293c-.543,0-.85.195-.7.446.46.738-.78,1.226-1.254.488-.293-.446-.585-.515-.822-.195a3.194,3.194,0,0,1-1.852.641,10.2,10.2,0,0,0-2.215.446,4.054,4.054,0,0,1-1.588.195c-1.128-.125-1.6.822-.85,1.727.446.543.46.905.042,1.309-.432.432-.571.376-.571-.209,0-2.005-3.134-1.3-3.663.836-.293,1.128-.446,1.24-1.086.682a1.541,1.541,0,0,1-.543-1.407c.139-.529-.139-.766-.933-.766-1.337,0-1.574,1.086-.292,1.351q.857.188-.543.46c-1.045.195-1.323.111-1.142-.376.153-.4-.1-.613-.682-.571a1.565,1.565,0,0,0-1.2.724c-.167.446-.738.543-1.825.32-1.281-.265-1.5-.195-1.156.376s.265.571-.418.014c-.724-.571-.919-.487-1.407.6a3.347,3.347,0,0,1-1.309,1.532c-.6.209-.627.125-.153-.418.5-.585.279-.682-1.407-.641-1.086.014-2.006.209-2.006.418s-.362.237-.808.07c-.543-.195-.71-.111-.487.251.432.682-2.9,1.657-4.373,1.3-.585-.153-4.791.863-9.443,2.27-25.989,7.841-58.873,19.638-90.238,32.382-5.78,2.34-12.02,4.805-13.928,5.487-5.084,1.825-15.056,6.142-15.056,6.518,0,.195-.4.376-.891.418-.919.07-12.9,5.529-14.025,6.407a21.693,21.693,0,0,1-3.12,1.518c-1.351.585-7.995,3.914-14.819,7.437C32.645,168.928,31.21,170,32.06,172.438c.794,2.312,2.9,2.089,8.134-.836,2.479-1.393,8.357-4.429,13.092-6.769s8.482-4.429,8.343-4.638.181-.293.724-.153a5.356,5.356,0,0,0,2.841-.738c1.031-.543,2.911-1.448,4.192-2.02,4.54-2.006,6.574-2.9,10.515-4.68,11.5-5.167,40.85-17.117,62.48-25.432,17.424-6.7,27.716-10.362,46.087-16.449C199.192,107.173,205.112,104.986,205.112,104.555Zm35.975-12.4c.6.153,1.184.07,1.337-.181a.952.952,0,0,1,.766-.446c.265,0,.153.348-.223.752-.877.877-2.089.975-2.563.195C240.14,92.061,240.349,91.964,241.087,92.159Zm-7.577.362a3.073,3.073,0,0,1,1.24.5c.39.265.5.487.237.487a2.9,2.9,0,0,1-1.226-.487C233.357,92.758,233.246,92.521,233.51,92.521Zm-10.864,4.457c.251,0,.028.292-.515.682s-1.072.585-1.212.446C220.655,97.841,221.95,96.992,222.647,96.978ZM217.7,99.443c1.393-.613,1.852-.613,1.49,0a1.824,1.824,0,0,1-1.393.46C216.769,99.889,216.769,99.861,217.7,99.443Zm-2.493-.989a.5.5,0,0,1-.223.738c-.265.153-.487-.056-.487-.446C214.5,97.855,214.778,97.744,215.209,98.454Zm-3.454,1.476c.139,0,.334.2.515.5.167.279.083.487-.223.487a.491.491,0,0,1-.515-.487C211.532,100.125,211.616,99.93,211.755,99.93Zm-4.415.989a.955.955,0,0,1,.78-.487c.306,0,.376.195.209.487a1.013,1.013,0,0,1-.794.5C207.229,101.421,207.159,101.212,207.34,100.919ZM279.695,94.4c0,.7-2.4,2.786-2.772,2.423a.694.694,0,0,0-.891.1c-.585.473-3.454,1.3-6.212,1.769-.961.167-3.607.836-5.933,1.49s-5.85,1.63-7.9,2.173-4.137,1.142-4.652,1.337c-.682.251-.85.153-.585-.348.2-.39,0-.279-.432.265s-.891.822-1.072.627a.676.676,0,0,0-.877.1,16.713,16.713,0,0,1-3.747,1.253c-1.783.46-3.761,1.017-4.443,1.267s-2.911.919-4.944,1.49c-7.312,2.089-13.649,4.025-18.872,5.738-2.911.961-5.613,1.811-5.947,1.88a9.329,9.329,0,0,0-1.351.432c-1.727.724-12.7,4.415-13.83,4.666a5.327,5.327,0,0,0-1.727.627c-1.2.863-6.156,2.382-7.061,2.131-1.045-.265-1.908-1.657-1.045-1.657.293,0,.39-.181.223-.446-.5-.822,10.153-5.251,11.435-4.763.39.153.585.1.446-.125-.293-.474,18.371-7.159,18.97-6.8a.484.484,0,0,0,.71-.167c.265-.418,12.716-4.54,20.279-6.713,1.63-.46,4.5-1.379,6.365-2.034a22.31,22.31,0,0,1,4.54-1.184,1.883,1.883,0,0,0,1.462-.515.865.865,0,0,1,1.017-.279c.39.153.682.028.682-.265s.32-.4.724-.251.822.1.961-.125a10.083,10.083,0,0,1,3.106-1.031c1.588-.362,3.774-.933,4.9-1.281,4.331-1.393,8.162-2.215,8.691-1.88.376.237.418.153.139-.292-.279-.474-.167-.571.418-.348.446.153.822.111.822-.1s.71-.613,1.6-.891a14.4,14.4,0,0,1,3.83-.446c1.978.042,2.215.167,2.2,1.142-.014.585.153.975.362.836C279.528,94.053,279.695,94.137,279.695,94.4Z" transform="matrix(0.921, 0.391, -0.391, 0.921, 38.659, -88.695)" fill="#535353"/>
</svg>
